<svg xmlns="http://www.w3.org/2000/svg" width="918.3978881835938" height="497.4464111328125" viewBox="-181.5359344482422 -164.17417907714844 918.3978881835938 497.4464111328125"><title>Neo4j Graph Visualization</title><desc>Created using Neo4j (http://www.neo4j.com/)</desc><g class="layer relationships"><g class="relationship" transform="translate(446.6938249186909 -102.54921784236052) rotate(376.9489079485189)"><path class="outline" fill="#A5ABB6" stroke="none" d="M 40 0.5 L 84.65343354605747 0.5 L 84.65343354605747 -0.5 L 40 -0.5 Z M 165.69249604605747 0.5 L 210.34592959211494 0.5 L 210.34592959211494 3.5 L 217.34592959211494 0 L 210.34592959211494 -3.5 L 210.34592959211494 -0.5 L 165.69249604605747 -0.5 Z"/><text text-anchor="middle" pointer-events="none" font-size="10px" fill="#000000" x="125.17296479605747" y="4" font-family="sans-serif">placeOfBusiness</text></g><g class="relationship" transform="translate(74.11177832265172 -25.32439218769298) rotate(348.29015128191577)"><path class="outline" fill="#FFC454" stroke="none" d="M 32.64101615137755,23.46410161513775 L 36.64101615137755,16.535898384862243 A 303.7604282233882 303.7604282233882 0 0 0 163.16478697687756,56.17191275254231 L 162.496985882851,64.14399163441601 A 311.7604282233882 311.7604282233882 0 0 1 32.64101615137755,23.46410161513775 Z M 203.45468893055536,64.87421416041758 L 203.07148548802522,56.88339723587018 A 303.7604282233882 303.7604282233882 0 0 0 330.92771553070673,21.782647128051522 L 329.5212800107755,19.132752955018255 L 345.1691356981037,18.752473599083316 L 336.0846457704547,31.498925762506843 L 334.6782102505235,28.849031589473576 A 311.7604282233882 311.7604282233882 0 0 1 203.45468893055536,64.87421416041758"/><text text-anchor="middle" pointer-events="none" font-size="10px" fill="#000000" x="183.03513431764398" y="65.18317801358984" font-family="sans-serif">Born_in</text></g><g class="relationship" transform="translate(679.4879539052633 196.86850565897535) rotate(531.5025917111067)"><path class="outline" fill="#A5ABB6" stroke="none" d="M 40 0.5 L 155.5478458104176 0.5 L 155.5478458104176 -0.5 L 40 -0.5 Z M 232.7001895604176 0.5 L 348.2480353708352 0.5 L 348.2480353708352 3.5 L 355.2480353708352 0 L 348.2480353708352 -3.5 L 348.2480353708352 -0.5 L 232.7001895604176 -0.5 Z"/><text text-anchor="middle" pointer-events="none" font-size="10px" fill="#000000" x="194.1240176854176" y="4" transform="rotate(180 194.1240176854176 0)" font-family="sans-serif">associated_with</text></g><g class="relationship" transform="translate(74.11177832265172 -25.32439218769298) rotate(412.6084209173689)"><path class="outline" fill="#A5ABB6" stroke="none" d="M 40 0.5 L 140.3448335796359 0.5 L 140.3448335796359 -0.5 L 40 -0.5 Z M 205.8272554546359 0.5 L 306.1720890342718 0.5 L 306.1720890342718 3.5 L 313.1720890342718 0 L 306.1720890342718 -3.5 L 306.1720890342718 -0.5 L 205.8272554546359 -0.5 Z"/><text text-anchor="middle" pointer-events="none" font-size="10px" fill="#000000" x="173.0860445171359" y="4" font-family="sans-serif">participate_in</text></g><g class="relationship" transform="translate(288.57873473442555 255.27220273160015) rotate(293.83980533501114)"><path class="outline" fill="#F16667" stroke="none" d="M 40 1 L 164.69562313187237 1 L 164.69562313187237 -1 L 40 -1 Z M 218.50324031937237 1 L 343.19886345124473 1 L 343.19886345124473 4 L 351.19886345124473 0 L 343.19886345124473 -4 L 343.19886345124473 -1 L 218.50324031937237 -1 Z"/><text text-anchor="middle" pointer-events="none" font-size="10px" fill="#000000" x="191.59943172562237" y="4" font-family="sans-serif">located_IN</text></g><g class="relationship" transform="translate(74.11177832265172 -25.32439218769298) rotate(348.29015128191577)"><path class="outline" fill="#57C7E3" stroke="none" d="M 40 2.5 L 157.94193525260678 2.5 L 157.94193525260678 -2.5 L 40 -2.5 Z M 211.55912275260678 2.5 L 329.50105800521357 2.5 L 329.50105800521357 5.5 L 340.50105800521357 0 L 329.50105800521357 -5.5 L 329.50105800521357 -2.5 L 211.55912275260678 -2.5 Z"/><text text-anchor="middle" pointer-events="none" font-size="10px" fill="#000000" x="184.75052900260678" y="4" font-family="sans-serif">Worked_in</text></g><g class="relationship" transform="translate(288.57873473442555 255.27220273160015) rotate(194.45866379319546)"><path class="outline" fill="#A5ABB6" stroke="none" d="M 40 0.5 L 182.76671290963807 0.5 L 182.76671290963807 -0.5 L 40 -0.5 Z M 250.28526759713807 0.5 L 393.05198050677615 0.5 L 393.05198050677615 3.5 L 400.05198050677615 0 L 393.05198050677615 -3.5 L 393.05198050677615 -0.5 L 250.28526759713807 -0.5 Z"/><text text-anchor="middle" pointer-events="none" font-size="10px" fill="#000000" x="216.52599025338807" y="4" transform="rotate(180 216.52599025338807 0)" font-family="sans-serif">Affiliated_with</text></g><g class="relationship" transform="translate(74.11177832265172 -25.32439218769298) rotate(501.1089207553417)"><path class="outline" fill="#A5ABB6" stroke="none" d="M 40 0.5 L 98.70152478410685 0.5 L 98.70152478410685 -0.5 L 40 -0.5 Z M 166.22007947160685 0.5 L 224.9216042557137 0.5 L 224.9216042557137 3.5 L 231.9216042557137 0 L 224.9216042557137 -3.5 L 224.9216042557137 -0.5 L 166.22007947160685 -0.5 Z"/><text text-anchor="middle" pointer-events="none" font-size="10px" fill="#000000" x="132.46080212785685" y="4" transform="rotate(180 132.46080212785685 0)" font-family="sans-serif">Affiliated_with</text></g><g class="relationship" transform="translate(74.11177832265172 -25.32439218769298) rotate(348.29015128191577)"><path class="outline" fill="#C990C0" stroke="none" d="M 33.89101615137755,-21.299038105676654 L 35.39101615137755,-18.70096189432334 A 307.6139067201359 307.6139067201359 0 0 1 162.76283304750717,-58.775439824759644 L 162.50502477662178,-61.76434177956895 A 310.6139067201359 310.6139067201359 0 0 0 33.89101615137755,-21.299038105676654 Z M 208.71185910709437,-62.29983824744198 L 208.5233882514102,-59.30576431105402 A 307.6139067201359 307.6139067201359 0 0 1 336.78972671308975,-22.193907197024643 L 335.35034032017296,-19.561766089126728 L 345.40584323324185,-19.191818572223298 L 339.66849949892327,-27.458189412820474 L 338.2291131060065,-24.82604830492256 A 310.6139067201359 310.6139067201359 0 0 0 208.71185910709437,-62.29983824744198"/><text text-anchor="middle" pointer-events="none" font-size="10px" fill="#000000" x="185.61585243280865" y="-57.39265474510887" font-family="sans-serif">Death_in</text></g><g class="relationship" transform="translate(288.57873473442555 255.27220273160015) rotate(325.02681879643364)"><path class="outline" fill="#A5ABB6" stroke="none" d="M 40 0.5 L 213.50394686832837 0.5 L 213.50394686832837 -0.5 L 40 -0.5 Z M 272.8730874933284 0.5 L 446.37703436165674 0.5 L 446.37703436165674 3.5 L 453.37703436165674 0 L 446.37703436165674 -3.5 L 446.37703436165674 -0.5 L 272.8730874933284 -0.5 Z"/><text text-anchor="middle" pointer-events="none" font-size="10px" fill="#000000" x="243.18851718082837" y="4" font-family="sans-serif">takes_place</text></g></g><g class="layer nodes"><g class="node" transform="translate(679.4879539052633,196.86850565897535)"><circle class="outline" cx="0" cy="0" r="40" fill="#F79767" stroke="#f36924" stroke-width="2px"/><text text-anchor="middle" pointer-events="none" font-family="sans-serif" dy="2.5" font-size="40" fill="#FFFFFF"/><text text-anchor="middle" pointer-events="none" x="0" y="5" font-size="10px" fill="#FFFFFF" font-family="sans-serif"> Organization</text></g><g class="node" transform="translate(-137.53593079339169,145.3993791124152)"><circle class="outline" cx="0" cy="0" r="40" fill="#FFC454" stroke="#d7a013" stroke-width="2px"/><text text-anchor="middle" pointer-events="none" font-family="sans-serif" dy="2.5" font-size="40" fill="#2A2C34"/><text text-anchor="middle" pointer-events="none" x="0" y="5" font-size="10px" fill="#2A2C34" font-family="sans-serif"> Groupe</text></g><g class="node selected" transform="translate(288.57873473442555,255.27220273160015)"><circle class="outline" cx="0" cy="0" r="40" fill="#4C8EDA" stroke="#2870c2" stroke-width="2px"/><text text-anchor="middle" pointer-events="none" font-family="sans-serif" dy="2.5" font-size="40" fill="#FFFFFF"/><text text-anchor="middle" pointer-events="none" x="0" y="5" font-size="10px" fill="#FFFFFF" font-family="sans-serif"> Event</text></g><g class="node" transform="translate(446.6938249186909,-102.54921784236052)"><circle class="outline" cx="0" cy="0" r="40" fill="#8DCC93" stroke="#5db665" stroke-width="2px"/><text text-anchor="middle" pointer-events="none" font-family="sans-serif" dy="2.5" font-size="40" fill="#2A2C34"/><text text-anchor="middle" pointer-events="none" x="0" y="5" font-size="10px" fill="#2A2C34" font-family="sans-serif"> City</text></g><g class="node" transform="translate(74.11177832265172,-25.32439218769298)"><circle class="outline" cx="0" cy="0" r="40" fill="#F16667" stroke="#eb2728" stroke-width="2px"/><text text-anchor="middle" pointer-events="none" font-family="sans-serif" dy="2.5" font-size="40" fill="#FFFFFF"/><text text-anchor="middle" pointer-events="none" x="0" y="5" font-size="10px" fill="#FFFFFF" font-family="sans-serif"> Person</text></g><g class="node" transform="translate(692.8619574087066,-27.528034007340807)"><circle class="outline" cx="0" cy="0" r="40" fill="#D9C8AE" stroke="#c0a378" stroke-width="2px"/><text text-anchor="middle" pointer-events="none" font-family="sans-serif" dy="2.5" font-size="40" fill="#2A2C34"/><text text-anchor="middle" pointer-events="none" x="0" y="5" font-size="10px" fill="#2A2C34" font-family="sans-serif"> Location</text></g></g></svg>