<svg xmlns="http://www.w3.org/2000/svg" width="821.0247802734375" height="447.2637634277344" viewBox="-315.3249206542969 -215.74832153320312 821.0247802734375 447.2637634277344"><title>Neo4j Graph Visualization</title><desc>Created using Neo4j (http://www.neo4j.com/)</desc><g class="layer relationships"><g class="relationship" transform="translate(39.70127305635586 -126.10345340403519) rotate(358.08056211638245)"><path class="outline" fill="#A5ABB6" stroke="none" d="M 40 4 L 126.49487369720921 4 L 126.49487369720921 -4 L 40 -4 Z M 207.53393619720921 4 L 294.02880989441843 4 L 294.02880989441843 7 L 308.02880989441843 0 L 294.02880989441843 -7 L 294.02880989441843 -4 L 207.53393619720921 -4 Z"/><text text-anchor="middle" pointer-events="none" font-size="10px" fill="#000000" x="167.01440494720921" y="4" font-family="sans-serif">placeOfBusiness</text></g><g class="relationship" transform="translate(-203.82214683187618 -102.02654899005296) rotate(354.35357688124293)"><path class="outline" fill="#FFC454" stroke="none" d="M 32.64101615137755,23.46410161513775 L 36.64101615137755,16.535898384862243 A 166.0509446384146 166.0509446384146 0 0 0 95.47043210304611,37.01018834380021 L 94.3047148506582,44.92480161846406 A 174.0509446384146 174.0509446384146 0 0 1 32.64101615137755,23.46410161513775 Z M 135.61137979865885,46.050608189386494 L 134.87849592440242,38.08424884355888 A 166.0509446384146 166.0509446384146 0 0 0 194.73579527835977,20.844746397495065 L 193.37953728829697,18.16882332976856 L 209.03178024783386,18.083439867504016 L 199.70874124192338,30.656464312492243 L 198.35248325186058,27.98054124476574 A 174.0509446384146 174.0509446384146 0 0 1 135.61137979865885,46.050608189386494"/><text text-anchor="middle" pointer-events="none" font-size="10px" fill="#000000" x="115.0334975065792" y="46.71938264914429" font-family="sans-serif">Born_in</text></g><g class="relationship" transform="translate(461.6998710911149 31.57787488103213) rotate(523.0810300240454)"><path class="outline" fill="#C990C0" stroke="none" d="M 40 2.5 L 153.85728836530654 2.5 L 153.85728836530654 -2.5 L 40 -2.5 Z M 231.00963211530654 2.5 L 344.8669204806131 2.5 L 344.8669204806131 5.5 L 355.8669204806131 0 L 344.8669204806131 -5.5 L 344.8669204806131 -2.5 L 231.00963211530654 -2.5 Z"/><text text-anchor="middle" pointer-events="none" font-size="10px" fill="#000000" x="192.43346024030654" y="4" transform="rotate(180 192.43346024030654 0)" font-family="sans-serif">associated_with</text></g><g class="relationship" transform="translate(-203.82214683187618 -102.02654899005296) rotate(400.94386059093205)"><path class="outline" fill="#D9C8AE" stroke="none" d="M 40 4 L 150.09695689134406 4 L 150.09695689134406 -4 L 40 -4 Z M 215.57937876634406 4 L 325.6763356576881 4 L 325.6763356576881 7 L 339.6763356576881 0 L 325.6763356576881 -7 L 325.6763356576881 -4 L 215.57937876634406 -4 Z"/><text text-anchor="middle" pointer-events="none" font-size="10px" fill="#000000" x="182.83816782884406" y="4" font-family="sans-serif">participate_in</text></g><g class="relationship" transform="translate(82.96714632043074 146.78265741447223) rotate(260.99079148025027)"><path class="outline" fill="#F16667" stroke="none" d="M 40 2.5 L 105.74354504264227 2.5 L 105.74354504264227 -2.5 L 40 -2.5 Z M 159.55116223014227 2.5 L 225.29470727278454 2.5 L 225.29470727278454 5.5 L 236.29470727278454 0 L 225.29470727278454 -5.5 L 225.29470727278454 -2.5 L 159.55116223014227 -2.5 Z"/><text text-anchor="middle" pointer-events="none" font-size="10px" fill="#000000" x="132.64735363639227" y="4" transform="rotate(180 132.64735363639227 0)" font-family="sans-serif">located_IN</text></g><g class="relationship" transform="translate(-203.82214683187618 -102.02654899005296) rotate(354.35357688124293)"><path class="outline" fill="#57C7E3" stroke="none" d="M 40 2.5 L 90.04678349209367 2.5 L 90.04678349209367 -2.5 L 40 -2.5 Z M 143.66397099209365 2.5 L 193.71075448418733 2.5 L 193.71075448418733 5.5 L 204.71075448418733 0 L 193.71075448418733 -5.5 L 193.71075448418733 -2.5 L 143.66397099209365 -2.5 Z"/><text text-anchor="middle" pointer-events="none" font-size="10px" fill="#000000" x="116.85537724209367" y="4" font-family="sans-serif">Worked_in</text></g><g class="relationship" transform="translate(82.96714632043074 146.78265741447223) rotate(533.4415261572454)"><path class="outline" fill="#569480" stroke="none" d="M 40 4 L 137.55364817276634 4 L 137.55364817276634 -4 L 40 -4 Z M 205.07220286026634 4 L 302.6258510330327 4 L 302.6258510330327 7 L 316.6258510330327 0 L 302.6258510330327 -7 L 302.6258510330327 -4 L 205.07220286026634 -4 Z"/><text text-anchor="middle" pointer-events="none" font-size="10px" fill="#000000" x="171.31292551651634" y="4" transform="rotate(180 171.31292551651634 0)" font-family="sans-serif">Affiliated_with</text></g><g class="relationship" transform="translate(-203.82214683187618 -102.02654899005296) rotate(463.123311778569)"><path class="outline" fill="#569480" stroke="none" d="M 40 4 L 107.89399905565301 4 L 107.89399905565301 -4 L 40 -4 Z M 175.412553743153 4 L 243.30655279880602 4 L 243.30655279880602 7 L 257.306552798806 0 L 243.30655279880602 -7 L 243.30655279880602 -4 L 175.412553743153 -4 Z"/><text text-anchor="middle" pointer-events="none" font-size="10px" fill="#000000" x="141.653276399403" y="4" transform="rotate(180 141.653276399403 0)" font-family="sans-serif">Affiliated_with</text></g><g class="relationship" transform="translate(-203.82214683187618 -102.02654899005296) rotate(354.35357688124293)"><path class="outline" fill="#C990C0" stroke="none" d="M 33.89101615137755,-21.299038105676654 L 35.39101615137755,-18.70096189432334 A 170.6554700446866 170.6554700446866 0 0 1 94.96242630114591,-39.60961545916558 L 94.50964869842686,-42.57525071025026 A 173.6554700446866 173.6554700446866 0 0 0 33.89101615137755,-21.299038105676654 Z M 140.79447675600494,-43.4001125552997 L 140.44765683301978,-40.42022733250661 A 170.6554700446866 170.6554700446866 0 0 1 200.72624644874927,-21.647472205328793 L 199.3197724238485,-18.997598469227505 L 209.3791046695035,-18.752986998677088 L 203.5391944985508,-26.947219677531365 L 202.13272047365004,-24.297345941430077 A 173.6554700446866 173.6554700446866 0 0 0 140.79447675600494,-43.4001125552997"/><text text-anchor="middle" pointer-events="none" font-size="10px" fill="#000000" x="117.65118153084592" y="-39.03712751600281" font-family="sans-serif">Death_in</text></g><g class="relationship" transform="translate(82.96714632043074 146.78265741447223) rotate(316.9468034731849)"><path class="outline" fill="#F79767" stroke="none" d="M 40 2.5 L 173.2178173389661 2.5 L 173.2178173389661 -2.5 L 40 -2.5 Z M 232.5869579639661 2.5 L 365.8047753029322 2.5 L 365.8047753029322 5.5 L 376.8047753029322 0 L 365.8047753029322 -5.5 L 365.8047753029322 -2.5 L 232.5869579639661 -2.5 Z"/><text text-anchor="middle" pointer-events="none" font-size="10px" fill="#000000" x="202.9023876514661" y="4" font-family="sans-serif">takes_place</text></g></g><g class="layer nodes"><g class="node" transform="translate(461.6998710911149,31.57787488103213)"><circle class="outline" cx="0" cy="0" r="40" fill="#F79767" stroke="#f36924" stroke-width="2px"/><text text-anchor="middle" pointer-events="none" font-family="sans-serif" dy="2.5" font-size="40" fill="#FFFFFF"/><text text-anchor="middle" pointer-events="none" x="0" y="5" font-size="10px" fill="#FFFFFF" font-family="sans-serif"> Organization</text></g><g class="node" transform="translate(-271.324876484926,187.51544766413969)"><circle class="outline" cx="0" cy="0" r="40" fill="#FFC454" stroke="#d7a013" stroke-width="2px"/><text text-anchor="middle" pointer-events="none" font-family="sans-serif" dy="2.5" font-size="40" fill="#2A2C34"/><text text-anchor="middle" pointer-events="none" x="0" y="5" font-size="10px" fill="#2A2C34" font-family="sans-serif"> Groupe</text></g><g class="node" transform="translate(82.96714632043074,146.78265741447223)"><circle class="outline" cx="0" cy="0" r="40" fill="#4C8EDA" stroke="#2870c2" stroke-width="2px"/><text text-anchor="middle" pointer-events="none" font-family="sans-serif" dy="2.5" font-size="40" fill="#FFFFFF"/><text text-anchor="middle" pointer-events="none" x="0" y="5" font-size="10px" fill="#FFFFFF" font-family="sans-serif"> Event</text></g><g class="node" transform="translate(39.70127305635586,-126.10345340403519)"><circle class="outline" cx="0" cy="0" r="40" fill="#8DCC93" stroke="#5db665" stroke-width="2px"/><text text-anchor="middle" pointer-events="none" font-family="sans-serif" dy="2.5" font-size="40" fill="#2A2C34"/><text text-anchor="middle" pointer-events="none" x="0" y="5" font-size="10px" fill="#2A2C34" font-family="sans-serif"> City</text></g><g class="node" transform="translate(-203.82214683187618,-102.02654899005296)"><circle class="outline" cx="0" cy="0" r="40" fill="#F16667" stroke="#eb2728" stroke-width="2px"/><text text-anchor="middle" pointer-events="none" font-family="sans-serif" dy="2.5" font-size="40" fill="#FFFFFF"/><text text-anchor="middle" pointer-events="none" x="0" y="5" font-size="10px" fill="#FFFFFF" font-family="sans-serif"> Person</text></g><g class="node selected" transform="translate(387.5348075926132,-137.7604156386614)"><circle class="outline" cx="0" cy="0" r="40" fill="#D9C8AE" stroke="#c0a378" stroke-width="2px"/><text text-anchor="middle" pointer-events="none" font-family="sans-serif" dy="2.5" font-size="40" fill="#2A2C34"/><text text-anchor="middle" pointer-events="none" x="0" y="5" font-size="10px" fill="#2A2C34" font-family="sans-serif"> Location</text></g></g></svg>